<?xml version="1.0" standalone="no"?>
<!DOCTYPE svg PUBLIC "-//W3C//DTD SVG 20010904//EN"
 "http://www.w3.org/TR/2001/REC-SVG-20010904/DTD/svg10.dtd">
<svg version="1.0" xmlns="http://www.w3.org/2000/svg"
 width="700.000000pt" height="700.000000pt" viewBox="0 0 700.000000 700.000000"
 preserveAspectRatio="xMidYMid meet">
<metadata>
Created by potrace 1.11, written by Peter Selinger 2001-2013
</metadata>
<g transform="translate(0.000000,700.000000) scale(0.100000,-0.100000)"
fill="#000000" stroke="none">
<path d="M163 6975 c-54 -27 -97 -78 -113 -136 -7 -22 -10 -1215 -10 -3349 0
-3203 1 -3316 19 -3356 21 -47 58 -86 104 -111 30 -17 168 -18 2486 -21 1585
-1 2466 1 2490 8 48 13 107 62 133 113 l22 42 1 1312 0 1313 816 817 c706 707
819 824 834 865 19 52 16 110 -9 168 -9 22 -215 234 -568 586 -597 594 -574
575 -678 569 -72 -5 -117 -35 -260 -179 -69 -69 -127 -126 -130 -126 -3 0 -5
305 -5 678 l0 677 -30 45 c-17 24 -50 58 -73 75 l-44 30 -2467 3 -2467 2 -51
-25z m4678 -414 c15 -1 16 -69 16 -760 l0 -758 -918 -919 c-628 -628 -923
-930 -933 -954 -7 -19 -19 -62 -27 -95 -7 -33 -14 -64 -15 -70 -1 -5 -5 -26
-9 -45 -3 -19 -10 -53 -15 -75 -5 -22 -12 -56 -15 -75 -3 -19 -22 -109 -41
-200 -48 -224 -107 -514 -118 -572 -2 -13 -14 -68 -27 -123 -25 -116 -27 -176
-5 -226 19 -46 70 -98 113 -115 63 -27 105 -23 396 40 65 14 133 28 150 31 18
3 39 8 47 10 8 2 26 6 40 9 14 2 68 14 120 25 52 11 106 23 120 25 21 4 190
38 255 52 11 2 88 17 170 34 83 17 164 36 180 42 17 6 142 122 281 261 l252
249 -1 -956 0 -956 -61 -1 c-360 -3 -4308 0 -4312 4 -7 6 -7 6104 -1 6114 4 6
4253 9 4358 4z m390 -2181 c-375 -375 -689 -696 -697 -713 -23 -43 -25 -129
-6 -178 18 -47 91 -115 136 -128 45 -13 127 -6 163 13 18 9 339 323 714 697
l681 682 104 -104 104 -104 -1092 -1092 c-601 -601 -1096 -1093 -1099 -1093
-9 0 -719 710 -719 719 0 3 492 498 1092 1098 l1093 1093 104 -104 104 -104
-682 -682z m-1442 -2204 c-2 -2 -20 -7 -39 -10 -19 -3 -75 -14 -125 -25 -49
-11 -103 -22 -120 -25 -16 -3 -40 -8 -52 -11 -53 -12 -62 -14 -98 -19 -20 -4
-57 -11 -81 -17 -25 -7 -47 -9 -50 -6 -3 3 4 52 16 109 12 56 23 112 26 122 4
21 43 208 50 241 2 11 7 33 10 49 2 16 7 33 10 38 3 5 107 -92 231 -217 124
-124 224 -227 222 -229z"/>
</g>
</svg>
